HIERARCHY
ROOT Hip
{
    OFFSET 0.0 0.0 0.0
    CHANNELS 6 Xposition Yposition Zposition Zrotation Xrotation Yrotation
    JOINT RightHip
    {
        OFFSET -13.06795883178711 0.0 0.0
        CHANNELS 3 Zrotation Xrotation Yrotation
        JOINT RightKnee
        {
            OFFSET 0.0 0.0 -44.5794677734375
            CHANNELS 3 Zrotation Xrotation Yrotation
            JOINT RightAnkle
            {
                OFFSET 0.0 0.0 -44.574058532714844
                CHANNELS 3 Zrotation Xrotation Yrotation
                End Site
                {
                    OFFSET 0.0 -17.82962417602539 0.0
                }
            }
        }
    }
    JOINT LeftHip
    {
        OFFSET 13.06795883178711 0.0 0.0
        CHANNELS 3 Zrotation Xrotation Yrotation
        JOINT LeftKnee
        {
            OFFSET 0.0 0.0 -44.5794677734375
            CHANNELS 3 Zrotation Xrotation Yrotation
            JOINT LeftAnkle
            {
                OFFSET 0.0 0.0 -44.574058532714844
                CHANNELS 3 Zrotation Xrotation Yrotation
                End Site
                {
                    OFFSET 0.0 -17.82962417602539 0.0
                }
            }
        }
    }
    JOINT Spine
    {
        OFFSET 0.0 0.0 23.108001708984375
        CHANNELS 3 Zrotation Xrotation Yrotation
        JOINT Thorax
        {
            OFFSET 0.0 0.0 25.374858856201172
            CHANNELS 3 Zrotation Xrotation Yrotation
            JOINT Neck
            {
                OFFSET 0.0 0.0 9.957420349121094
                CHANNELS 3 Zrotation Xrotation Yrotation
                End Site
                {
                    OFFSET 0.0 0.0 3.982968807220459
                }
            }
            JOINT LeftShoulder
            {
                OFFSET 14.43388557434082 0.0 0.0
                CHANNELS 3 Zrotation Xrotation Yrotation
                JOINT LeftElbow
                {
                    OFFSET 27.0897216796875 0.0 0.0
                    CHANNELS 3 Zrotation Xrotation Yrotation
                    JOINT LeftWrist
                    {
                        OFFSET 24.485370635986328 0.0 0.0
                        CHANNELS 3 Zrotation Xrotation Yrotation
                        End Site
                        {
                            OFFSET 9.794146537780762 0.0 0.0
                        }
                    }
                }
            }
            JOINT RightShoulder
            {
                OFFSET -14.43388557434082 0.0 0.0
                CHANNELS 3 Zrotation Xrotation Yrotation
                JOINT RightElbow
                {
                    OFFSET -27.0897216796875 0.0 0.0
                    CHANNELS 3 Zrotation Xrotation Yrotation
                    JOINT RightWrist
                    {
                        OFFSET -24.485370635986328 0.0 0.0
                        CHANNELS 3 Zrotation Xrotation Yrotation
                        End Site
                        {
                            OFFSET -9.794146537780762 0.0 0.0
                        }
                    }
                }
            }
        }
    }
}
MOTION
Frames: 7
Frame Time: 0.03333333333333333
0.0009783899877220392 -0.003330823266878724 -5.037974915467203e-05 140.28533719031321 -42.399983199728275 -74.24857184741303 23.662938564713464 -58.31628753213973 25.111752295486376 -0.7294595413305648 18.918428219678585 3.384382407065984 3.180554681463516e-15 0.0 0.0 15.891005886592701 -47.83392364286765 22.15388497365913 0.2432458233160319 12.098019020358626 2.423592535768002 3.1805546814635168e-15 0.0 0.0 -6.419448465866025 24.27874822736129 7.94041911888475 10.211434849365409 4.912076793390334e-07 -5.79767034498023e-07 -2.089735039711546 -12.27283546717583 3.2704256962182336 -46.59082956416498 -13.616817029197778 53.37571957752435 -38.10257314192423 -7.406059502110538e-07 1.2819936823411428e-07 1.2722218725854067e-14 7.951386703658792e-16 -8.827812596100317e-32 48.820057815118155 -16.9413183000154 -36.347206809679825 19.72955973934725 2.0380067356340615e-06 2.510035009316808e-06 1.2722218725854067e-14 6.3611093629270335e-15 3.180554681463516e-15
0.0009489773074164987 -0.0033188960514962673 -5.4023388656787574e-05 140.94043068705466 -42.03969120338311 -73.99553818316714 24.640579079019982 -59.209144240454904 25.86713192608564 -0.7826149512166513 19.36001655855469 3.439649675129061 0.0 0.0 0.0 16.25037238265232 -48.3720707673548 22.56763391402419 0.27159592084044903 12.200047880165622 2.3293908826503427 -6.3611093629270335e-15 0.0 0.0 -6.360587576396889 24.020556716372553 8.038273748492388 10.187672314138872 -4.4438010718283093e-07 -3.514386002243954e-07 -2.1320223282730297 -12.464451291379639 3.0611730957912964 -46.7527364977488 -13.66426938670267 52.93809183831305 -37.8599960449126 -6.994122025182413e-08 6.87887103387658e-07 0.0 0.0 0.0 49.06944328519328 -17.031442496495593 -35.8385801479599 19.53948395853912 3.2633286711072993e-06 5.497248018377287e-06 0.0 0.0 3.1805546814635168e-15
0.0009185561793856323 -0.003322900738567114 -5.601204975391738e-05 141.83104766218258 -41.81593258777042 -73.52117626940715 25.86706639259831 -60.012556813942936 27.158480171518818 -0.7555024787585283 20.00372665143686 3.3484149147487776 3.1805546814635168e-15 1.7655625192200634e-31 6.3611093629270335e-15 16.887115548255373 -49.05799604523474 23.109922627151597 0.26807016752944945 12.522810561737408 2.3049421837777118 3.1805546814635164e-15 -6.3611093629270335e-15 -6.3611093629270335e-15 -6.398315852989321 23.86448112240734 8.015340937166442 10.134296302100333 -1.9772235300102227e-06 9.066976201504543e-07 -2.18735836716777 -12.43994347007459 2.7598130607189315 -45.9950219300048 -14.519545277969968 52.69698146331701 -38.21394897776894 9.597629335533529e-07 2.453078105644916e-07 0.0 0.0 3.9756933518293955e-16 49.41916491320588 -17.001798960958837 -35.10838864982771 19.25705530290359 -4.902983346470129e-07 -2.669465593830685e-06 -6.3611093629270335e-15 3.531125038440127e-31 -6.3611093629270335e-15
0.0009276660275645554 -0.003393043763935566 -2.113927257596515e-05 143.2722533681439 -40.782958951280236 -72.55164015739572 27.20594554579008 -61.60168044133609 28.472891113931826 -0.6683411536908909 20.148533629024243 3.3148885842427513 -3.531125038440127e-31 -6.3611093629270335e-15 -6.3611093629270335e-15 17.595680054585944 -50.69968195947145 23.213422621207965 0.20570697858258483 12.604079495331847 2.2579923415351373 0.0 0.0 -3.1805546814635168e-15 -6.12353104372205 23.33065787945904 7.679225770062478 10.247338576939576 -1.3053641122243105e-06 -1.956658500177604e-06 -2.6424165565048345 -13.521949447395476 2.956935771656498 -45.50711849172257 -14.221460477767026 51.70838883769748 -39.02666831230617 -4.6865356171724633e-07 1.4211501600693352e-07 -6.3611093629270335e-15 -3.9756933518293955e-16 -7.951386703658792e-16 49.614064414741925 -17.14776072765326 -34.10061699459594 19.194199037030863 -1.1488684353626238e-06 1.2423793360247016e-06 0.0 0.0 -3.1805546814635164e-15
0.000894856930244714 -0.0034477016888558865 -8.706649623491103e-07 145.01332120655647 -39.30454596179438 -71.66315286879026 29.297265629724823 -63.44595162868181 30.426612332126016 -0.6215024470687981 20.467168368472993 3.2469624140515614 -3.1805546814635176e-15 8.827812596100317e-32 -3.1805546814635176e-15 18.897062129539258 -52.916086390529834 23.75373297134042 0.12175922352221871 13.16792407101134 2.209753974272813 1.7655625192200634e-31 6.3611093629270335e-15 -3.1805546814635168e-15 -5.789852682685525 22.404934342903772 7.746143135622474 10.264821717435048 5.822780496310342e-07 9.30565336947108e-07 -3.9478202906746236 -14.342503183244691 2.810063093171264 -44.93105035350452 -14.181914431719179 50.97200289361595 -39.68690168146035 5.758197315288057e-07 -1.618781130045533e-08 -2.758691436281349e-33 -3.975693351829396e-16 -7.951386703658792e-16 49.36440378683147 -19.144832125582827 -33.51880720569778 18.89560630431384 -4.964758918016356e-06 -1.9080790636779922e-06 -6.3611093629270335e-15 0.0 0.0
0.0008880823152139783 -0.0035082935355603695 -2.3019481432129396e-06 146.81394127384908 -38.27350126881105 -70.70167312982454 31.52104729553276 -65.26223968035386 32.73672840565717 -0.4952479437836649 21.073109809078296 3.0032749038414455 -6.3611093629270335e-15 6.3611093629270335e-15 3.531125038440127e-31 20.141972631168947 -54.998766418329346 24.55875901345378 0.10407906078736189 13.652250124861188 1.9108775176376847 -6.3611093629270335e-15 0.0 0.0 -5.5580845275216975 21.892612811547103 7.672027670319631 9.95489041601727 -1.4104283299582476e-06 -3.0928482863433777e-06 -4.215221290276479 -14.950771282696943 2.5491038250123896 -44.37606909007112 -14.455949637941906 50.453021023033735 -39.79413521375541 6.487522911357506e-07 3.582808647162377e-07 -6.3611093629270335e-15 -3.9756933518293955e-16 -7.951386703658792e-16 49.20147494321668 -20.793686253914714 -32.69489708338509 18.370407332455017 2.513237992472285e-06 -4.79149569859946e-06 6.361109362927033e-15 -5.29668755766019e-31 -9.541664044390549e-15
0.0008637616410851479 -0.0036031778436154127 5.4690604883944616e-05 149.08950498628448 -36.655889149509434 -69.33373121295834 34.547155199247605 -67.27720055698273 35.54153178149065 -0.4539452151489822 20.904097901458695 2.916820167967395 -3.1805546814635168e-15 6.3611093629270335e-15 3.1805546814635168e-15 22.108269231844137 -57.72149113494746 25.93110613408749 0.06340541671785378 13.797240118130308 1.5152940381531648 -3.1805546814635168e-15 6.3611093629270335e-15 1.7655625192200634e-31 -5.316467265350321 21.302462582010484 7.705529175016966 9.617165517372007 2.8268010072515605e-06 -2.5400062164771704e-07 -5.934184442686052 -15.989733241129413 1.1316892125154165 -43.62907156073244 -15.237393486067592 49.31108598998001 -39.36816005956617 -1.0390173510839613e-07 2.9580004116283936e-07 -6.3611093629270335e-15 3.975693351829396e-16 2.2069531490250793e-32 51.98708445106272 -18.278272984956338 -30.2782314685641 18.30629842586458 2.030421745455517e-06 1.0098717469666911e-07 0.0 0.0 0.0
